<svg xmlns="http://www.w3.org/2000/svg" width="108.177" height="20.675" viewBox="0 0 108.177 20.675">
  <path id="ic-facebook-logotype" d="M-9039.262-542.373v-1.166c0-3.772,2.18-6.262,6.621-6.262,4.191,0,6.024,2.517,6.024,6.207v2.123h-8.566c.084,1.813.906,2.622,3.171,2.622a11.743,11.743,0,0,0,4.332-.809l.738,2.765a13.373,13.373,0,0,1-5.243.977C-9037.337-535.915-9039.262-538.462-9039.262-542.373Zm4.077-1.724h4.925v-.335c0-1.458-.593-2.6-2.381-2.6-1.838,0-2.544,1.147-2.544,2.932Zm14.129,5.872v2.011h-3.85V-556.2l4.075-.364v8.886a4.057,4.057,0,0,1,3.788-2.123c3.735,0,5.549,2.8,5.539,6.517v.838c0,3.72-1.8,6.512-5.532,6.512a4.172,4.172,0,0,1-4.02-2.291Zm.221-5.341v1.4c0,1.911.907,3.077,2.574,3.077,1.952,0,2.689-1.4,2.689-3.271v-1.009c0-1.872-.735-3.271-2.689-3.271C-9019.928-546.643-9020.835-545.47-9020.835-543.566Zm-44.681,1.121v-.852c0-3.715,1.8-6.512,5.535-6.512a4.005,4.005,0,0,1,3.878,2.33v-2.041h3.906v13.307h-3.906v-2.011a3.963,3.963,0,0,1-3.879,2.291C-9063.732-535.933-9065.516-538.73-9065.516-542.445Zm4.1-.9v.95c0,1.986.724,3.3,2.621,3.3,1.672,0,2.52-1.2,2.52-3.1v-1.344c0-1.9-.848-3.1-2.52-3.1-1.883,0-2.618,1.312-2.618,3.3Zm66.063.809v-.67c0-3.829,2.2-6.6,6.7-6.6s6.708,2.768,6.7,6.6v.67c0,3.831-2.207,6.6-6.7,6.6s-6.7-2.769-6.7-6.6Zm4.077-.948v1.228c0,1.763.735,3.162,2.621,3.162s2.622-1.414,2.622-3.162v-1.228c0-1.761-.738-3.159-2.622-3.159s-2.619,1.412-2.619,3.161Zm-18.854.948v-.67c0-3.829,2.2-6.6,6.7-6.6s6.708,2.768,6.7,6.6v.67c0,3.831-2.207,6.6-6.7,6.6s-6.7-2.769-6.7-6.6Zm4.077-.948v1.228c0,1.763.738,3.162,2.622,3.162s2.621-1.414,2.621-3.162v-1.228c0-1.761-.737-3.159-2.621-3.159s-2.62,1.412-2.62,3.161Zm-44.619.92v-.615c0-4.077,2.182-6.624,6.963-6.624a7.524,7.524,0,0,1,3.905.9l-.905,2.849a6.465,6.465,0,0,0-2.715-.613c-2.21,0-3.171,1.257-3.173,3.408v.779c0,2.153.963,3.412,3.173,3.412a6.5,6.5,0,0,0,2.715-.615l.906,2.852a7.526,7.526,0,0,1-3.906.893c-4.781,0-6.961-2.546-6.961-6.624Zm78.517,6.346-4.188-6.512v6.512h-4.077V-556.2l4.077-.36v13.389l4.021-6.346h4.33l-4.219,6.571,4.387,6.733Zm-101.1-.009v-10.009H-9076v-3.285h2.747V-551.5c0-3.326,1.357-5.089,5.152-5.089a19.665,19.665,0,0,1,2.374.139v3.1h-1.811c-1.273,0-1.643.558-1.643,1.788v2.039h3.4l-.337,3.3h-3.059v10.009Z" transform="translate(9076 556.589)" fill="#c69c6d"/>
</svg>
