<svg xmlns="http://www.w3.org/2000/svg" width="94.22" height="31.014" viewBox="0 0 94.22 31.014">
  <path id="ic-google" d="M-9162.068-527.442l2.962-1.233a4.281,4.281,0,0,0,3.9,2.749c2.556,0,4.139-1.576,4.139-4.543v-1.115h-.12a5.276,5.276,0,0,1-4.08,1.761,7.671,7.671,0,0,1-7.425-7.718,7.7,7.7,0,0,1,7.425-7.778,5.368,5.368,0,0,1,4.08,1.731h.12v-1.261h3.23v13.913c0,5.723-3.374,8.06-7.366,8.06a7.379,7.379,0,0,1-6.863-4.566Zm2.791-10.1a4.45,4.45,0,0,0,1.176,3.241,4.45,4.45,0,0,0,3.14,1.427c2.316,0,4.138-1.967,4.138-4.668,0-2.731-1.821-4.726-4.138-4.726a4.481,4.481,0,0,0-3.15,1.457,4.479,4.479,0,0,0-1.164,3.27Zm-20.18-.028a7.634,7.634,0,0,1,2.244-5.523,7.638,7.638,0,0,1,5.53-2.227,7.637,7.637,0,0,1,5.532,2.226,7.633,7.633,0,0,1,2.244,5.524,7.652,7.652,0,0,1-2.25,5.518,7.655,7.655,0,0,1-5.524,2.232,7.656,7.656,0,0,1-5.524-2.232,7.655,7.655,0,0,1-2.251-5.517Zm3.4,0a4.481,4.481,0,0,0,1.194,3.273,4.476,4.476,0,0,0,3.177,1.427,4.483,4.483,0,0,0,3.177-1.428,4.484,4.484,0,0,0,1.2-3.272,4.464,4.464,0,0,0-1.19-3.277,4.464,4.464,0,0,0-3.183-1.423,4.462,4.462,0,0,0-3.179,1.425,4.464,4.464,0,0,0-1.187,3.276Zm-20.175,0a7.631,7.631,0,0,1,2.243-5.524,7.633,7.633,0,0,1,5.53-2.226,7.635,7.635,0,0,1,5.53,2.227,7.635,7.635,0,0,1,2.244,5.523,7.658,7.658,0,0,1-2.25,5.517,7.656,7.656,0,0,1-5.524,2.233,7.654,7.654,0,0,1-5.521-2.234,7.654,7.654,0,0,1-2.248-5.515Zm3.4,0a4.485,4.485,0,0,0,1.2,3.272,4.481,4.481,0,0,0,3.178,1.428,4.48,4.48,0,0,0,3.176-1.429,4.478,4.478,0,0,0,1.194-3.271,4.466,4.466,0,0,0-1.189-3.277,4.462,4.462,0,0,0-3.182-1.423,4.467,4.467,0,0,0-3.179,1.426,4.47,4.47,0,0,0-1.187,3.275Zm51.752,0c0-4.61,3.316-7.75,7.311-7.75a7.194,7.194,0,0,1,6.631,4.931l.353.879-10.361,4.29a3.945,3.945,0,0,0,3.758,2.349,4.422,4.422,0,0,0,3.814-2.145l2.641,1.761a7.707,7.707,0,0,1-6.455,3.434,7.583,7.583,0,0,1-5.49-2.243,7.583,7.583,0,0,1-2.2-5.51Zm3.374-.234,6.927-2.877a3,3,0,0,0-2.877-1.641,4.248,4.248,0,0,0-2.969,1.409,4.248,4.248,0,0,0-1.076,3.1Zm-83.3-4.05a12.2,12.2,0,0,1,12.209-12.034,11.458,11.458,0,0,1,8.246,3.316l-2.319,2.319a8.378,8.378,0,0,0-5.931-2.347,8.633,8.633,0,0,0-6.145,2.568,8.63,8.63,0,0,0-2.486,6.177,8.623,8.623,0,0,0,2.486,6.177,8.631,8.631,0,0,0,6.144,2.568,8.06,8.06,0,0,0,6.08-2.407,6.823,6.823,0,0,0,1.778-4.071h-7.857v-3.286h11.082a10.973,10.973,0,0,1,.165,1.983,10.867,10.867,0,0,1-2.849,7.692,11.008,11.008,0,0,1-8.394,3.374A12.2,12.2,0,0,1-9221-541.857Zm75.178,11.562V-553h3.318v22.7ZM-9147.834-544.85Zm0,0Z" transform="translate(9221.006 553.889)" fill="#c69c6d"/>
</svg>
