<svg xmlns="http://www.w3.org/2000/svg" width="96.513" height="22.4" viewBox="0 0 96.513 22.4">
  <path id="ic-yahoo" d="M-9279.481-537.447a1.363,1.363,0,0,1,.368-1.041,1.358,1.358,0,0,1,1.019-.426,1.4,1.4,0,0,1,1.082.345,1.4,1.4,0,0,1,.471,1.033,1.3,1.3,0,0,1-.339,1.029,1.3,1.3,0,0,1-1,.415C-9278.767-536.092-9279.481-536.551-9279.481-537.447Zm-80.262,1.286a9.587,9.587,0,0,0-1.413-.141,10.962,10.962,0,0,0-1.415.141l.007-.006-.012.006.176-9.486c-1.314-2.274-5.186-9.2-7.6-12.844l.015.012-.01-.012a5.5,5.5,0,0,0,2.947,0l-.013.007.017-.007c1.536,2.725,3.9,6.535,5.889,9.837,1.966-3.231,5.049-8.27,5.891-9.834h0a6.081,6.081,0,0,0,2.958,0h0l-.007.007c-1.121,1.521-5.164,8.534-7.616,12.835h.007Zm57.735-11.172c0-6.57,4.758-10.1,10.982-10.1,7,0,11.062,4.146,11.062,10.2,0,6.42-4.349,10.081-11.01,10.081C-9298.843-537.155-9302.008-541.919-9302.008-547.333Zm2.942-.038c0,6.676,3.84,9.148,8.054,9.148,3.943,0,8.108-2.206,8.108-9.014,0-6.262-3.442-9.1-8.115-9.1-3.791,0-8.047,2.046-8.047,8.967Zm-23.064.1c0-5.136,3.278-9.1,9.526-9.1,5.8,0,9.55,3.44,9.55,9.157,0,5.129-3.135,8.995-9.557,8.995-5.94,0-9.52-3.432-9.52-9.055Zm2.933.031c0,5.035,2.445,8.021,6.612,8.021,3.819,0,6.622-2.6,6.622-8.038s-2.808-8.042-6.629-8.042h-.165c-3.426.067-6.443,2.36-6.443,8.056Zm-23.1,8.785h0c-.673-1.731-1.361-3.459-2.048-5.188-2.413-.078-4.828-.068-7.243,0h0c-.715,1.806-1.428,3.6-2.056,5.183l-.016-.006.016.008a5.97,5.97,0,0,0-2.9,0l.023-.01-.037.012c2.46-5.011,5.192-11.73,7.564-17.684h0a2.912,2.912,0,0,0,2.053,0l-.015.007.017-.007c2.26,5.719,5.815,14.373,7.587,17.679h0a6.041,6.041,0,0,0-2.939,0Zm-2.54-6.42c-1.091-2.749-2.163-5.489-3.14-8.207-.642,1.846-1.854,4.967-3.129,8.207q3.139.11,6.271,0Zm-11.728,6.42a.022.022,0,0,1,.012,0Zm30.639,0h0q.217-4.115.229-8.223-4.939-.067-9.88,0h0q.018,4.108.231,8.223h0a6.226,6.226,0,0,0-2.942,0c.235-5.884.257-11.774,0-17.677a6.207,6.207,0,0,0,2.946,0h0q-.215,4.124-.23,8.249h0q4.935.124,9.881,0-.013-4.127-.23-8.249a6.208,6.208,0,0,0,2.946,0c-.256,5.9-.234,11.793,0,17.677a6.221,6.221,0,0,0-2.939,0Zm47.956-2.6-.036.009h-.006l.006-.005c.719-5.077,1.154-10.41,1.575-15.729a1.338,1.338,0,0,1,.364-1.062,1.337,1.337,0,0,1,1.044-.412,2.7,2.7,0,0,1,.3.026h0a1.32,1.32,0,0,1,1.234,1.357,4.851,4.851,0,0,1-.176.929c-.5,2.187-2.435,9.912-3.248,15.069h0v.006a1.93,1.93,0,0,0-1.055-.189ZM-9325.931-556.134Z" transform="translate(9370 558.491)" fill="#c69c6d"/>
</svg>
