<svg xmlns="http://www.w3.org/2000/svg" width="217.938" height="44.61" viewBox="0 0 217.938 44.61">
  <path id="title-lg-5" d="M9.516-35.3q.328-1.641,1.641-1.359l6.984,1.594a3.426,3.426,0,0,1,1.688.656q.469,1.078-1.453,1.641a5.233,5.233,0,0,0-.984,1.547,58.941,58.941,0,0,1-4.078,7.125q-.7,1.031.8,1.359,1.313.516,1.313.7a1.344,1.344,0,0,1-.422.656,1.849,1.849,0,0,0-.516,1.5v25.5a1.446,1.446,0,0,1-1.406,1.594l-4.219.422q-1.641.141-1.641-1.266V-15.094q0-1.125-1.312.188l-2.3,2.3Q2.2-11.344,1.828-11.437q-.469-.187.375-1.687A63.8,63.8,0,0,0,7.875-27.8Q8.813-31.547,9.516-35.3Zm22.266.563q0-1.453,1.406-1.359l6.984.563q1.219.188,1.5.75.094.609-.937,1.266a1.822,1.822,0,0,0-.891,1.641v5.719q0,1.453.891.281a12.023,12.023,0,0,1,.938-1.547q.984-1.547,2.156-.281l1.688,1.875q1.406,1.547,1.031,2.2a2.109,2.109,0,0,1-1.875.7H41.016q-1.172,0-1.172,1.125V3.047a4.445,4.445,0,0,1-2.109,3.516A12.788,12.788,0,0,1,32.3,7.828a1.449,1.449,0,0,1-1.641-1.359,10.828,10.828,0,0,0-.937-3.281A7.223,7.223,0,0,0,26.156.563q-1.547-.609-1.5-1.031Q24.7-.75,26.109-.75h4.5q1.172,0,1.172-1.125V-21.75q0-1.172-1.125-1.172H18.047q-1.406,0-1.641-.516-.375-.75.891-.75H30.609q1.172,0,1.172-1.125ZM17.625-19.781q.281-.469,1.641.047A21.3,21.3,0,0,1,26.25-15.7a7.154,7.154,0,0,1,1.594,4.969A4.655,4.655,0,0,1,24.656-6.75a2.6,2.6,0,0,1-2.812-.562,4.965,4.965,0,0,1-1.594-3.75,13.4,13.4,0,0,0-1.734-6.562Q17.344-19.266,17.625-19.781ZM67.162-35.156q0-1.406,1.359-1.312,2.578.094,5.156.328a3.382,3.382,0,0,1,1.688.422q.609.656-.656,1.359-.469.234-.469,1.359v1.266q0,1.172.656,1.172t1.922-1.406a7.068,7.068,0,0,1,.8-.937,1.732,1.732,0,0,1,2.672-.187L81.6-32.062q1.266,1.031,1.406-.281l.234-2.25q.234-1.828,1.688-1.547l6.188.938a1.61,1.61,0,0,1,1.5.8q.047.563-.844.938-.844.234-1.125,1.594-.609,1.875-1.406,3.75-.562,1.5.563,1.5h4.734a3.342,3.342,0,0,0,2.3-1.172,1.881,1.881,0,0,1,2.625-.281l4.219,2.906a2.04,2.04,0,0,1,.75.984q.141,1.219-1.406.938a3.589,3.589,0,0,0-2.25,1.313L96.412-17.25q-1.312,1.406-1.594,1.266-.281-.187-.094-1.641l.891-6.562q.094-1.125-1.031-1.125h-5.3q-1.125,0-1.453.516-.375.75.656.844,2.109.141,4.359.422a4.892,4.892,0,0,1,1.641.563q.141.75-.8,1.125a2.351,2.351,0,0,0-.75,1.922q-.047,2.25-.281,4.641a4.279,4.279,0,0,0,.469,1.875,25.13,25.13,0,0,0,9.609,11.344q1.5,1.031,1.5,1.359,0,.422-1.266,1.781a12.085,12.085,0,0,0-2.062,5.156q-.187,1.547-1.453.609Q92.616,1.359,91.631-5.2q-.375-1.406-.984.234a20.56,20.56,0,0,1-5.25,7.5,23.506,23.506,0,0,1-7.5,4.5q-1.734.609-1.828.234-.094-.281,1.313-1.453a19.594,19.594,0,0,0,6.094-7.922q2.016-5.906,2.2-17.437,0-1.219-1.125.281-1.172,1.406-2.719,2.953-1.547,1.125-1.687.938a2.523,2.523,0,0,1,.094-1.641l1.078-4.594q.188-1.125-.937-1.125H62.991q-1.406,0-1.734-.656-.234-.656,1.172-.656h3.563q1.172,0,1.172-1.125v-2.906q0-1.172-1.125-1.172H62.006q-1.406,0-1.687-.656-.234-.656,1.172-.656h4.5q1.172,0,1.172-1.125ZM82.4-28.031q.234-1.219-.891-1.219H75.412q-1.172,0-1.172,1.125v2.906q0,1.125.281,1.172.281,0,1.453-1.312l.8-.937q1.125-1.219,2.672,0l.938.75q1.359,1.125,1.688-.281Zm-8.531,7.078q1.359-1.547,2.672-.469l2.25,1.781q1.219,1.078.75,1.734-.422.656-1.828.656H64.491q-1.406,0-1.688-.656t1.125-.656h6.8Q71.9-17.906,73.866-20.953Zm3.469,6.141q1.266-1.5,2.625-.422l1.922,1.547q1.547,1.266,1.172,1.875a2.311,2.311,0,0,1-1.969.75H75.647q-1.172,0-1.172,1.125V3.047a3.322,3.322,0,0,1-2.016,3.844,13.662,13.662,0,0,1-4.031.563,1.392,1.392,0,0,1-1.547-1.406,8.637,8.637,0,0,0-1.266-3.281q-1.5-1.406-1.453-1.734Q64.209.8,65.756.8,67.35.8,67.35-.328V-3.187q0-1.5-.8-.281a29.025,29.025,0,0,1-5.484,7.031q-1.406,1.359-1.641,1.313-.375-.141.047-1.547A58.4,58.4,0,0,0,61.4-7.406q.188-1.406,1.594-1.078,1.547.281,3.234.7,1.125.234,1.125-.891V-9.891q0-1.172-1.125-1.172H62.053q-1.406,0-1.734-.656-.234-.656,1.172-.656H74.1Q75.319-11.812,77.334-14.812Zm-2.25,7.031q.328-.328,1.641.094a22.781,22.781,0,0,1,3.234,1.359q3.984,2.531,2.2,6.188a4.17,4.17,0,0,1-3,2.344Q77.8,2.156,77.381-.469a18.516,18.516,0,0,0-1.641-5.625Q74.85-7.547,75.084-7.781ZM140.559-35.25q-.047-1.5,1.266-1.406l6.938.469q.8-.094.891.75.141.469-.844.938a1.571,1.571,0,0,0-.609,1.453q-.047,1.828.047,3.656.141,1.266,1.125,1.266h1.969a2.076,2.076,0,0,0,1.594-.516q.563-.656-.047-1.922a2.791,2.791,0,0,1-.234-1.312,4.422,4.422,0,0,0-.8-1.875q-1.594-1.641-1.406-2.016.281-.422,1.688-.375a16.207,16.207,0,0,1,3.609.375q4.031,1.078,3.375,4.406a2.093,2.093,0,0,0,.938,2.2q1.219,1.031.844,1.641a2.122,2.122,0,0,1-1.828.656h-9.469q-1.172,0-1.172,1.406.281,4.641.75,9.281.234,1.219.891-.281,1.406-2.953,2.625-5.953.609-1.359,2.109-.375l5.953,3.938q1.172.984.469,1.453a4.5,4.5,0,0,1-1.125.328q-.8,0-1.781,1.406-2.766,4.266-5.484,7.828A2.067,2.067,0,0,0,152.7-5.3a26.212,26.212,0,0,0,2.953,3.609q1.172,1.172,1.734,0l2.344-4.875q.75-1.5,1.078-1.406.469.141.047,1.547a30.008,30.008,0,0,0-.562,3.281,10.36,10.36,0,0,0,.563,5.578,3.211,3.211,0,0,1,.516,3.141q-2.578,3.563-6.281,1.688A17.74,17.74,0,0,1,147.309.609q-.844-1.266-2.156-.187a47.715,47.715,0,0,1-11.625,6.516q-1.406.516-1.594.281-.234-.375,1.078-1.453a53.509,53.509,0,0,0,10.266-10.5,2.716,2.716,0,0,0,.281-2.531,92.228,92.228,0,0,1-2.578-18.328q-.047-1.266-1.078-1.266H128.747q-1.172,0-1.172,1.125v5.063q0,1.172,1.125,1.172h2.063q1.125.516,3-1.781a2.042,2.042,0,0,1,2.813-.187q1.406.891,2.813,1.922,2.953,1.359.656,2.766-.656.328-.656,1.453-.047,9.469-1.734,14.25a8.264,8.264,0,0,1-.937,1.453,9.224,9.224,0,0,1-4.828,1.266q-1.453,0-1.453-1.781a4.589,4.589,0,0,0-2.3-4.547q-1.125-.375-1.125-.891,0-.609,1.406-.609h1.922q1.125,0,1.359-1.406a70.126,70.126,0,0,0,.563-9.469q0-1.172-1.125-1.172h-2.391q-1.172,0-1.172,1.125v5.063a26.436,26.436,0,0,1-5.344,15,23.105,23.105,0,0,1-3,3.328q-1.594,1.406-1.969,1.125-.281-.281.328-1.781,2.438-6.094,2.484-16.078V-30.047q0-1.406,1.406-.844,2.578,1.031,5.156,2.2a3.768,3.768,0,0,0,2.484.563h10.5a.994.994,0,0,0,1.125-1.125Zm57.788,0q.047-1.5,1.359-1.406,3.469.188,6.938.516,1.078-.047,1.266.844.141.469-.984.984a1.54,1.54,0,0,0-.7,1.5l-.281,6.891a.994.994,0,0,0,1.125,1.125H208.1q1.219.609,3.188-2.344a1.791,1.791,0,0,1,2.625-.375q2.578,1.734,5.156,3.609,1.172.984-.234,1.828a2.176,2.176,0,0,0-.75,1.922,158,158,0,0,1-1.5,22.359,6.356,6.356,0,0,1-1.828,3.75,12.366,12.366,0,0,1-6.562,1.875q-1.687,0-1.828-1.406a8.488,8.488,0,0,0-1.125-3.281A4.469,4.469,0,0,0,202,1.219q-1.547-.234-1.547-.937,0-.844,1.406-.844h5.625q1.125,0,1.313-1.406a196.618,196.618,0,0,0,1.031-20.3q0-1.172-1.125-1.172h-1.781q-1.125,0-1.266,1.406A44.276,44.276,0,0,1,202.238-7.5q-3.984,9.328-14.484,14.766-1.5.75-1.828.422-.281-.422.984-1.828,6.609-7.734,8.953-14.531a56.578,56.578,0,0,0,2.109-13.641.994.994,0,0,0-1.125-1.125h-3.562q-1.406,0-1.734-.656-.234-.7,1.172-.7h4.219a1.092,1.092,0,0,0,1.219-1.125Q198.347-30.562,198.347-35.25Zm-9.187,2.578q1.313-1.641,2.719-.469l2.3,1.875q1.688,1.406,1.266,2.063a2.06,2.06,0,0,1-1.781.656h-4.078q-1.172,0-1.172,1.125v16.688q0,1.125,1.406.984,1.969-.328,3.938-.516,1.594-.234,1.594.234,0,.609-1.406,1.547L180.347-.141a1.806,1.806,0,0,0-1.125,1.266,1.866,1.866,0,0,1-1.031.891q-.422.047-1.219-1.641L175-6.094q-.422-1.406.984-1.641l3.656-.562a1.2,1.2,0,0,0,1.125-1.312V-27.375q0-1.172-1.125-1.172h-2.062q-1.406,0-1.781-.656-.234-.656,1.172-.656h8.859a3.048,3.048,0,0,0,2.25-1.406A14.073,14.073,0,0,1,189.159-32.672Z" transform="translate(-1.661 36.697)" fill="#f2f0ed"/>
</svg>
